Coordinates
version=1
nRows=4
nColumns=63
inDegrees=yes

Units are S.I. units (second, meters, Newtons, ...)
If the header above contains a line with 'inDegrees', this indicates whether rotational values are in degrees (yes) or radians (no).

endheader
time	pelvis_tilt	pelvis_list	pelvis_rotation	pelvis_tx	pelvis_ty	pelvis_tz	hip_flexion_r	hip_adduction_r	hip_rotation_r	knee_angle_r	knee_angle_r_beta	ankle_angle_r	subtalar_angle_r	mtp_angle_r	hip_flexion_l	hip_adduction_l	hip_rotation_l	knee_angle_l	knee_angle_l_beta	ankle_angle_l	subtalar_angle_l	mtp_angle_l	L5_S1_Flex_Ext	L5_S1_Lat_Bending	L5_S1_axial_rotation	L4_L5_Flex_Ext	L4_L5_Lat_Bending	L4_L5_axial_rotation	L3_L4_Flex_Ext	L3_L4_Lat_Bending	L3_L4_axial_rotation	L2_L3_Flex_Ext	L2_L3_Lat_Bending	L2_L3_axial_rotation	L1_L2_Flex_Ext	L1_L2_Lat_Bending	L1_L2_axial_rotation	L1_T12_Flex_Ext	L1_T12_Lat_Bending	L1_T12_axial_rotation	Abs_r3	Abs_r2	Abs_r1	Abs_t1	Abs_t2	neck_flexion	neck_bending	neck_rotation	arm_flex_r	arm_add_r	arm_rot_r	elbow_flex_r	pro_sup_r	wrist_flex_r	wrist_dev_r	arm_flex_l	arm_add_l	arm_rot_l	elbow_flex_l	pro_sup_l	wrist_flex_l	wrist_dev_l
      2.31666667	     -1.98538294	    -24.13381282	     93.23741919	      0.16843923	      1.00113873	      0.20633788	     39.18090125	     -4.43194934	     -2.59998296	     25.90816282	      0.45218274	     43.49783091	     -0.42458485	      0.00000000	     36.26783150	      6.01401778	      9.26839223	     17.39291834	      0.30356369	     36.14125595	     -5.09483433	      0.00000000	      0.49257517	      0.14534035	     -0.96749732	      0.91476135	      0.19330267	     -1.02796591	      0.80925175	      0.35338053	     -1.02796591	      0.56296417	      0.35338053	     -0.84656016	      0.45740531	      0.29637804	     -0.78609158	      0.28145745	      0.22513220	     -0.72562299	      3.51841520	      1.64411911	     -5.38092987	      0.00000000	      0.00000000	     28.17620314	     -4.49372829	      1.52269179	     13.60639229	     -9.65467079	     34.76421361	     37.32077250	     85.06821321	    -11.55665502	      7.89080700	     43.57768803	    -19.50051068	     36.77446650	     50.45890537	     89.19064038	     -2.53889020	     12.88263275
      2.33333333	     -2.00787117	    -24.42629714	     93.08022716	      0.16838772	      1.00203643	      0.20553945	     38.45437029	     -4.55282431	     -3.48101970	     24.25133364	      0.42326562	     42.60896896	      0.37623262	      0.00000000	     35.73466452	      6.40701898	     12.78163474	     16.12817002	      0.28148967	     33.87941222	    -10.46782335	      0.00000000	      0.49851846	      0.16241116	     -0.90926843	      0.92579863	      0.21600684	     -0.96609771	      0.81901597	      0.39488650	     -0.96609771	      0.56975674	      0.39488650	     -0.79560988	      0.46292424	      0.33118884	     -0.73878060	      0.28485345	      0.25157489	     -0.68195133	      3.56086749	      1.83722754	     -5.05707825	      0.00000000	      0.00000000	     28.24438979	     -4.82383026	      1.19956416	     13.09568928	     -9.63270973	     33.20386401	     37.65176682	     86.02278290	    -11.46050453	      7.83254790	     43.74984414	    -19.43346420	     36.99864469	     50.90081213	     89.22869694	     -3.16861144	     11.83843424
      2.35000000	     -1.96095753	    -24.82519095	     93.01311269	      0.16896783	      1.00251950	      0.20506577	     37.95891792	     -4.48964918	     -3.84841205	     22.74175134	      0.39691844	     41.69460812	      0.47969490	      0.00000000	     35.78848698	      6.27464133	     12.59484725	     15.60810062	      0.27241275	     33.07373164	    -10.77042071	      0.00000000	      0.51300869	      0.17777357	     -0.90122089	      0.95270843	      0.23643885	     -0.95754719	      0.84282197	      0.43223867	     -0.95754719	      0.58631763	      0.43223867	     -0.78856827	      0.47637987	      0.36251587	     -0.73224197	      0.29313316	      0.27537126	     -0.67591566	      3.66436976	      2.01101021	     -5.01232020	      0.00000000	      0.00000000	     28.29116474	     -4.80268242	      0.94678127	     12.86154284	     -9.58681314	     32.69483074	     37.90053318	     86.03754726	    -11.63910354	      7.59767462	     43.89308434	    -19.65845812	     36.89624341	     51.55242116	     89.25091657	     -3.15665706	     11.42962087
      2.36666667	     -1.06608392	    -25.11399731	     93.66998330	      0.16790112	      1.00318439	      0.20445356	     37.22500176	     -4.09157981	     -5.28332048	     21.10178947	      0.36829570	     40.82197528	      1.20865853	      0.00000000	     35.68919059	      5.99145071	     15.44731448	     14.99455380	      0.26170433	     31.78997629	    -13.98942308	      0.00000000	      0.50992022	      0.30934027	     -0.92989591	      0.94697283	      0.41142256	     -0.98801441	      0.83774792	      0.75212993	     -0.98801441	      0.58278781	      0.75212993	     -0.81365892	      0.47351191	      0.63080668	     -0.75554043	      0.29136841	      0.47916808	     -0.69742194	      3.64230911	      3.49931899	     -5.17180210	      0.00000000	      0.00000000	     28.31057444	     -5.60982339	      0.93205327	     12.26676733	     -9.92024052	     30.73422664	     38.48463617	     86.68311394	    -11.11201786	      7.37330519	     44.01952128	    -18.99463674	     36.71827509	     51.21449952	     89.24572766	     -4.27818172	      9.44640765
